<svg width="40" height="40" viewBox="0 0 40 40" fill="none" xmlns="http://www.w3.org/2000/svg">
<rect width="40" height="40" rx="3" fill="#72611E" fill-opacity="0.3"/>
<path fill-rule="evenodd" clip-rule="evenodd" d="M22.386 20.3335C22.2481 19.9435 21.9927 19.6058 21.655 19.367C21.3172 19.1281 20.9137 18.9999 20.5 19V18.5H19.5V19C18.9696 19 18.4609 19.2107 18.0858 19.5858C17.7107 19.9609 17.5 20.4696 17.5 21C17.5 21.5304 17.7107 22.0391 18.0858 22.4142C18.4609 22.7893 18.9696 23 19.5 23V25C19.065 25 18.6945 24.7225 18.5565 24.3335C18.536 24.2699 18.503 24.211 18.4594 24.1603C18.4157 24.1097 18.3624 24.0683 18.3025 24.0386C18.2426 24.0089 18.1773 23.9916 18.1106 23.9875C18.0439 23.9835 17.977 23.9929 17.914 24.0152C17.8509 24.0375 17.793 24.0721 17.7436 24.1172C17.6942 24.1622 17.6543 24.2167 17.6264 24.2775C17.5984 24.3382 17.5829 24.4039 17.5808 24.4707C17.5787 24.5376 17.5899 24.6041 17.614 24.6665C17.7519 25.0565 18.0073 25.3942 18.345 25.633C18.6828 25.8719 19.0863 26.0001 19.5 26V26.5H20.5V26C21.0304 26 21.5391 25.7893 21.9142 25.4142C22.2893 25.0391 22.5 24.5304 22.5 24C22.5 23.4696 22.2893 22.9609 21.9142 22.5858C21.5391 22.2107 21.0304 22 20.5 22V20C20.7068 19.9999 20.9085 20.064 21.0774 20.1834C21.2463 20.3027 21.374 20.4715 21.443 20.6665C21.4872 20.7915 21.5792 20.8939 21.6988 20.9511C21.7581 20.9795 21.8223 20.9958 21.8879 20.9993C21.9535 21.0028 22.0191 20.9934 22.081 20.9715C22.1429 20.9496 22.1999 20.9158 22.2488 20.8719C22.2976 20.828 22.3373 20.7749 22.3656 20.7157C22.394 20.6564 22.4103 20.5922 22.4138 20.5266C22.4173 20.461 22.4079 20.3954 22.386 20.3335ZM19.5 20C19.2348 20 18.9804 20.1054 18.7929 20.2929C18.6054 20.4804 18.5 20.7348 18.5 21C18.5 21.2652 18.6054 21.5196 18.7929 21.7071C18.9804 21.8946 19.2348 22 19.5 22V20ZM20.5 25C20.7652 25 21.0196 24.8946 21.2071 24.7071C21.3946 24.5196 21.5 24.2652 21.5 24C21.5 23.7348 21.3946 23.4804 21.2071 23.2929C21.0196 23.1054 20.7652 23 20.5 23V25Z" fill="#F1C40F"/>
<path fill-rule="evenodd" clip-rule="evenodd" d="M14.5765 12.3105C15.8035 11.71 17.8165 11 20.0195 11C22.1765 11 24.1365 11.6805 25.357 12.273L25.426 12.3065C25.794 12.4885 26.091 12.6605 26.3 12.8L24.453 15.5C28.711 19.853 32 28.9985 20.0195 28.9985C8.03899 28.9985 11.2395 20.019 15.5345 15.5L13.6995 12.8C13.841 12.7075 14.0205 12.6 14.2345 12.486C14.3405 12.429 14.4545 12.3702 14.5765 12.3105ZM23.266 15.4645L24.7445 13.303C23.3695 13.402 21.7335 13.725 20.1585 14.181C19.0335 14.506 17.7835 14.4565 16.626 14.243C16.3343 14.189 16.0446 14.1246 15.7575 14.05L16.7175 15.4635C18.775 16.196 21.208 16.196 23.266 15.4645ZM16.14 16.315C18.5475 17.245 21.441 17.245 23.8485 16.314C24.8532 17.3736 25.6938 18.5774 26.3425 19.8855C27.0185 21.2645 27.3865 22.643 27.3265 23.831C27.2685 24.9775 26.8175 25.957 25.7875 26.685C24.714 27.4435 22.9085 27.9985 20.019 27.9985C17.1265 27.9985 15.3125 27.453 14.229 26.703C13.1915 25.9845 12.736 25.018 12.6715 23.887C12.604 22.712 12.964 21.3405 13.6375 19.952C14.28 18.628 15.1765 17.3535 16.14 16.315ZM15.565 12.958C15.965 13.077 16.383 13.1805 16.807 13.259C17.882 13.457 18.96 13.486 19.88 13.2195C20.9521 12.9071 22.0425 12.6614 23.145 12.484C22.225 12.207 21.149 12 20.019 12C18.2965 12 16.69 12.4805 15.565 12.958Z" fill="#F1C40F"/>
</svg>
