<svg width="77" height="26" viewBox="0 0 77 26" fill="none" xmlns="http://www.w3.org/2000/svg">
<rect width="77" height="26" rx="3" fill="#7DBE56" fill-opacity="0.2"/>
<path d="M19.7856 16.418V18H14.4243V16.418H19.7856ZM15.0322 7.33594V18H13.0181V7.33594H15.0322ZM24.6964 18.1465C24.0958 18.1465 23.5562 18.0488 23.0777 17.8535C22.5992 17.6582 22.1915 17.3872 21.8546 17.0405C21.5226 16.689 21.2662 16.2812 21.0855 15.8174C20.9098 15.3486 20.8219 14.8457 20.8219 14.3086V14.0156C20.8219 13.4053 20.9098 12.8511 21.0855 12.353C21.2613 11.8501 21.5104 11.418 21.8326 11.0566C22.1549 10.6953 22.5406 10.417 22.9898 10.2217C23.4391 10.0264 23.9347 9.92871 24.4767 9.92871C25.0382 9.92871 25.5338 10.0239 25.9635 10.2144C26.3932 10.3999 26.7521 10.6636 27.0401 11.0054C27.3282 11.3472 27.5455 11.7573 27.692 12.2358C27.8385 12.7095 27.9117 13.2344 27.9117 13.8105V14.6235H21.7008V13.2905H26.0074V13.144C25.9977 12.8364 25.9391 12.5557 25.8316 12.3018C25.7242 12.043 25.5582 11.8379 25.3336 11.6865C25.109 11.5303 24.8185 11.4521 24.462 11.4521C24.1739 11.4521 23.9225 11.5156 23.7076 11.6426C23.4977 11.7646 23.3219 11.9404 23.1803 12.1699C23.0436 12.3945 22.941 12.6631 22.8727 12.9756C22.8043 13.2881 22.7701 13.6348 22.7701 14.0156V14.3086C22.7701 14.6406 22.8141 14.9482 22.902 15.2314C22.9947 15.5146 23.129 15.7612 23.3048 15.9712C23.4854 16.1763 23.7003 16.3374 23.9493 16.4546C24.2032 16.5669 24.4913 16.623 24.8136 16.623C25.2188 16.623 25.5851 16.5449 25.9122 16.3887C26.2442 16.2275 26.5323 15.9907 26.7765 15.6782L27.7506 16.689C27.5846 16.9331 27.36 17.1675 27.0768 17.3921C26.7984 17.6167 26.4615 17.7998 26.066 17.9414C25.6705 18.0781 25.214 18.1465 24.6964 18.1465ZM31.885 16.5352L33.7307 10.0752H35.7521L33.0349 18H31.8044L31.885 16.5352ZM30.5373 10.0752L32.405 16.5498L32.4709 18H31.2331L28.5085 10.0752H30.5373ZM40.3772 18.1465C39.7767 18.1465 39.2371 18.0488 38.7586 17.8535C38.2801 17.6582 37.8724 17.3872 37.5354 17.0405C37.2034 16.689 36.9471 16.2812 36.7664 15.8174C36.5906 15.3486 36.5027 14.8457 36.5027 14.3086V14.0156C36.5027 13.4053 36.5906 12.8511 36.7664 12.353C36.9422 11.8501 37.1912 11.418 37.5135 11.0566C37.8357 10.6953 38.2215 10.417 38.6707 10.2217C39.1199 10.0264 39.6155 9.92871 40.1575 9.92871C40.719 9.92871 41.2146 10.0239 41.6443 10.2144C42.074 10.3999 42.4329 10.6636 42.721 11.0054C43.0091 11.3472 43.2264 11.7573 43.3729 12.2358C43.5193 12.7095 43.5926 13.2344 43.5926 13.8105V14.6235H37.3816V13.2905H41.6883V13.144C41.6785 12.8364 41.6199 12.5557 41.5125 12.3018C41.4051 12.043 41.2391 11.8379 41.0145 11.6865C40.7898 11.5303 40.4993 11.4521 40.1429 11.4521C39.8548 11.4521 39.6033 11.5156 39.3885 11.6426C39.1785 11.7646 39.0027 11.9404 38.8611 12.1699C38.7244 12.3945 38.6219 12.6631 38.5535 12.9756C38.4852 13.2881 38.451 13.6348 38.451 14.0156V14.3086C38.451 14.6406 38.4949 14.9482 38.5828 15.2314C38.6756 15.5146 38.8099 15.7612 38.9856 15.9712C39.1663 16.1763 39.3812 16.3374 39.6302 16.4546C39.8841 16.5669 40.1722 16.623 40.4944 16.623C40.8997 16.623 41.2659 16.5449 41.5931 16.3887C41.9251 16.2275 42.2132 15.9907 42.4573 15.6782L43.4314 16.689C43.2654 16.9331 43.0408 17.1675 42.7576 17.3921C42.4793 17.6167 42.1424 17.7998 41.7469 17.9414C41.3514 18.0781 40.8948 18.1465 40.3772 18.1465ZM47.0897 6.75V18H45.1488V6.75H47.0897ZM53.0147 17.0552C53.0147 16.7622 53.1148 16.5156 53.315 16.3154C53.5152 16.1152 53.7862 16.0151 54.128 16.0151C54.4698 16.0151 54.7408 16.1152 54.941 16.3154C55.1412 16.5156 55.2413 16.7622 55.2413 17.0552C55.2413 17.3433 55.1412 17.5874 54.941 17.7876C54.7408 17.9829 54.4698 18.0806 54.128 18.0806C53.7862 18.0806 53.5152 17.9829 53.315 17.7876C53.1148 17.5874 53.0147 17.3433 53.0147 17.0552ZM53.0221 10.9102C53.0221 10.6172 53.1222 10.3706 53.3224 10.1704C53.5226 9.97021 53.7936 9.87012 54.1354 9.87012C54.4771 9.87012 54.7481 9.97021 54.9483 10.1704C55.1485 10.3706 55.2486 10.6172 55.2486 10.9102C55.2486 11.1982 55.1485 11.4424 54.9483 11.6426C54.7481 11.8379 54.4771 11.9355 54.1354 11.9355C53.7936 11.9355 53.5226 11.8379 53.3224 11.6426C53.1222 11.4424 53.0221 11.1982 53.0221 10.9102ZM64.3269 16.4766V18H57.1052V16.6963L60.5695 12.9536C60.9309 12.5435 61.2165 12.187 61.4265 11.8843C61.6364 11.5815 61.7854 11.3081 61.8732 11.064C61.966 10.8149 62.0124 10.5781 62.0124 10.3535C62.0124 10.0264 61.9538 9.74072 61.8366 9.49658C61.7194 9.24756 61.5485 9.05469 61.3239 8.91797C61.1042 8.78125 60.8332 8.71289 60.5109 8.71289C60.1545 8.71289 59.8493 8.7959 59.5954 8.96191C59.3464 9.12305 59.156 9.34766 59.0241 9.63574C58.8972 9.92383 58.8337 10.2534 58.8337 10.6245H56.8928C56.8928 9.99463 57.0393 9.4209 57.3322 8.90332C57.6252 8.38086 58.0451 7.96338 58.592 7.65088C59.1389 7.33838 59.7883 7.18213 60.5402 7.18213C61.2727 7.18213 61.8928 7.3042 62.4006 7.54834C62.9084 7.7876 63.2941 8.12939 63.5578 8.57373C63.8215 9.01807 63.9533 9.54785 63.9533 10.1631C63.9533 10.5049 63.8972 10.8418 63.7849 11.1738C63.6726 11.5059 63.5139 11.8354 63.3088 12.1626C63.1086 12.4849 62.8693 12.812 62.591 13.144C62.3127 13.4761 62.0026 13.8154 61.6608 14.1621L59.5808 16.4766H64.3269Z" fill="#61E014"/>
</svg>
