<svg width="77" height="26" viewBox="0 0 77 26" fill="none" xmlns="http://www.w3.org/2000/svg">
<rect width="77" height="26" rx="3" fill="#F5E341" fill-opacity="0.2"/>
<path d="M19.7856 16.418V18H14.4243V16.418H19.7856ZM15.0322 7.33594V18H13.0181V7.33594H15.0322ZM24.6964 18.1465C24.0958 18.1465 23.5562 18.0488 23.0777 17.8535C22.5992 17.6582 22.1915 17.3872 21.8546 17.0405C21.5226 16.689 21.2662 16.2812 21.0855 15.8174C20.9098 15.3486 20.8219 14.8457 20.8219 14.3086V14.0156C20.8219 13.4053 20.9098 12.8511 21.0855 12.353C21.2613 11.8501 21.5104 11.418 21.8326 11.0566C22.1549 10.6953 22.5406 10.417 22.9898 10.2217C23.4391 10.0264 23.9347 9.92871 24.4767 9.92871C25.0382 9.92871 25.5338 10.0239 25.9635 10.2144C26.3932 10.3999 26.7521 10.6636 27.0401 11.0054C27.3282 11.3472 27.5455 11.7573 27.692 12.2358C27.8385 12.7095 27.9117 13.2344 27.9117 13.8105V14.6235H21.7008V13.2905H26.0074V13.144C25.9977 12.8364 25.9391 12.5557 25.8316 12.3018C25.7242 12.043 25.5582 11.8379 25.3336 11.6865C25.109 11.5303 24.8185 11.4521 24.462 11.4521C24.1739 11.4521 23.9225 11.5156 23.7076 11.6426C23.4977 11.7646 23.3219 11.9404 23.1803 12.1699C23.0436 12.3945 22.941 12.6631 22.8727 12.9756C22.8043 13.2881 22.7701 13.6348 22.7701 14.0156V14.3086C22.7701 14.6406 22.8141 14.9482 22.902 15.2314C22.9947 15.5146 23.129 15.7612 23.3048 15.9712C23.4854 16.1763 23.7003 16.3374 23.9493 16.4546C24.2032 16.5669 24.4913 16.623 24.8136 16.623C25.2188 16.623 25.5851 16.5449 25.9122 16.3887C26.2442 16.2275 26.5323 15.9907 26.7765 15.6782L27.7506 16.689C27.5846 16.9331 27.36 17.1675 27.0768 17.3921C26.7984 17.6167 26.4615 17.7998 26.066 17.9414C25.6705 18.0781 25.214 18.1465 24.6964 18.1465ZM31.885 16.5352L33.7307 10.0752H35.7521L33.0349 18H31.8044L31.885 16.5352ZM30.5373 10.0752L32.405 16.5498L32.4709 18H31.2331L28.5085 10.0752H30.5373ZM40.3772 18.1465C39.7767 18.1465 39.2371 18.0488 38.7586 17.8535C38.2801 17.6582 37.8724 17.3872 37.5354 17.0405C37.2034 16.689 36.9471 16.2812 36.7664 15.8174C36.5906 15.3486 36.5027 14.8457 36.5027 14.3086V14.0156C36.5027 13.4053 36.5906 12.8511 36.7664 12.353C36.9422 11.8501 37.1912 11.418 37.5135 11.0566C37.8357 10.6953 38.2215 10.417 38.6707 10.2217C39.1199 10.0264 39.6155 9.92871 40.1575 9.92871C40.719 9.92871 41.2146 10.0239 41.6443 10.2144C42.074 10.3999 42.4329 10.6636 42.721 11.0054C43.0091 11.3472 43.2264 11.7573 43.3729 12.2358C43.5193 12.7095 43.5926 13.2344 43.5926 13.8105V14.6235H37.3816V13.2905H41.6883V13.144C41.6785 12.8364 41.6199 12.5557 41.5125 12.3018C41.4051 12.043 41.2391 11.8379 41.0145 11.6865C40.7898 11.5303 40.4993 11.4521 40.1429 11.4521C39.8548 11.4521 39.6033 11.5156 39.3885 11.6426C39.1785 11.7646 39.0027 11.9404 38.8611 12.1699C38.7244 12.3945 38.6219 12.6631 38.5535 12.9756C38.4852 13.2881 38.451 13.6348 38.451 14.0156V14.3086C38.451 14.6406 38.4949 14.9482 38.5828 15.2314C38.6756 15.5146 38.8099 15.7612 38.9856 15.9712C39.1663 16.1763 39.3812 16.3374 39.6302 16.4546C39.8841 16.5669 40.1722 16.623 40.4944 16.623C40.8997 16.623 41.2659 16.5449 41.5931 16.3887C41.9251 16.2275 42.2132 15.9907 42.4573 15.6782L43.4314 16.689C43.2654 16.9331 43.0408 17.1675 42.7576 17.3921C42.4793 17.6167 42.1424 17.7998 41.7469 17.9414C41.3514 18.0781 40.8948 18.1465 40.3772 18.1465ZM47.0897 6.75V18H45.1488V6.75H47.0897ZM53.0147 17.0552C53.0147 16.7622 53.1148 16.5156 53.315 16.3154C53.5152 16.1152 53.7862 16.0151 54.128 16.0151C54.4698 16.0151 54.7408 16.1152 54.941 16.3154C55.1412 16.5156 55.2413 16.7622 55.2413 17.0552C55.2413 17.3433 55.1412 17.5874 54.941 17.7876C54.7408 17.9829 54.4698 18.0806 54.128 18.0806C53.7862 18.0806 53.5152 17.9829 53.315 17.7876C53.1148 17.5874 53.0147 17.3433 53.0147 17.0552ZM53.0221 10.9102C53.0221 10.6172 53.1222 10.3706 53.3224 10.1704C53.5226 9.97021 53.7936 9.87012 54.1354 9.87012C54.4771 9.87012 54.7481 9.97021 54.9483 10.1704C55.1485 10.3706 55.2486 10.6172 55.2486 10.9102C55.2486 11.1982 55.1485 11.4424 54.9483 11.6426C54.7481 11.8379 54.4771 11.9355 54.1354 11.9355C53.7936 11.9355 53.5226 11.8379 53.3224 11.6426C53.1222 11.4424 53.0221 11.1982 53.0221 10.9102ZM59.2219 11.811H60.3132C60.6989 11.811 61.0163 11.7451 61.2653 11.6133C61.5192 11.4766 61.7072 11.291 61.8293 11.0566C61.9562 10.8174 62.0197 10.5415 62.0197 10.229C62.0197 9.92139 61.9636 9.65527 61.8513 9.43066C61.739 9.20117 61.5681 9.02539 61.3386 8.90332C61.114 8.77637 60.8259 8.71289 60.4743 8.71289C60.1911 8.71289 59.9299 8.76904 59.6906 8.88135C59.4562 8.99365 59.2683 9.15479 59.1267 9.36475C58.9899 9.56982 58.9216 9.81641 58.9216 10.1045H56.9807C56.9807 9.52832 57.132 9.02295 57.4348 8.58838C57.7424 8.14893 58.1574 7.80469 58.6799 7.55566C59.2023 7.30664 59.7858 7.18213 60.4304 7.18213C61.1335 7.18213 61.7487 7.29932 62.2761 7.53369C62.8083 7.76318 63.2209 8.10254 63.5139 8.55176C63.8117 9.00098 63.9606 9.55762 63.9606 10.2217C63.9606 10.5391 63.885 10.8564 63.7336 11.1738C63.5871 11.4863 63.3698 11.7695 63.0817 12.0234C62.7985 12.2725 62.4494 12.4751 62.0344 12.6313C61.6242 12.7827 61.153 12.8584 60.6208 12.8584H59.2219V11.811ZM59.2219 13.3052V12.2725H60.6208C61.2214 12.2725 61.7414 12.3433 62.1809 12.4849C62.6252 12.6216 62.9914 12.8169 63.2795 13.0708C63.5676 13.3198 63.78 13.6104 63.9167 13.9424C64.0583 14.2744 64.1291 14.6309 64.1291 15.0117C64.1291 15.5098 64.0363 15.9541 63.8508 16.3447C63.6652 16.7305 63.404 17.0576 63.0671 17.3262C62.7351 17.5947 62.3444 17.7998 61.8952 17.9414C61.446 18.0781 60.9602 18.1465 60.4377 18.1465C59.9836 18.1465 59.5417 18.0854 59.112 17.9634C58.6872 17.8364 58.3039 17.6484 57.9621 17.3994C57.6203 17.1455 57.3493 16.8281 57.1491 16.4473C56.9489 16.0615 56.8488 15.6147 56.8488 15.1069H58.7897C58.7897 15.3999 58.8605 15.6611 59.0021 15.8906C59.1486 16.1201 59.3488 16.3008 59.6027 16.4326C59.8615 16.5596 60.1521 16.623 60.4743 16.623C60.8308 16.623 61.1359 16.5596 61.3898 16.4326C61.6486 16.3008 61.8464 16.1152 61.9831 15.876C62.1198 15.6318 62.1882 15.3413 62.1882 15.0044C62.1882 14.604 62.1125 14.2793 61.9611 14.0303C61.8098 13.7812 61.5925 13.5981 61.3093 13.481C61.031 13.3638 60.6989 13.3052 60.3132 13.3052H59.2219Z" fill="#FFE600"/>
</svg>
